# xmcd
#
# Track frame offsets:
#	150
#	11310
#	25415
#	37140
#	48872
#	60387
#	73902
#	84207
#	97600
#	110512
#	122897
#
# Disc length: 1778 seconds
#
# Revision: 0
# Processed by: cddbd v1.5PL3 Copyright (c) Steve Scherf et al.
# Submitted via: dBpowerAMP V4.0
#
DISCID=8306f00b
DTITLE=Vicente Fernandez - Lo Siento Por Ti
DYEAR=1900
DGENRE=
TTITLE0=Lo Siento Por Ti
TTITLE1=Me Caso El Sabado
TTITLE2=Tu Y Yo
TTITLE3=Pierdete Conmigo
TTITLE4=Actor
TTITLE5=Si Pudieras Amarme
TTITLE6=Perdon
TTITLE7=Cuando Un Amor Termina
TTITLE8=Piensalo Bien
TTITLE9=Mi Adoracion
TTITLE10=Dos Ramas
EXTD=
EXTT0=
EXTT1=
EXTT2=
EXTT3=
EXTT4=
EXTT5=
EXTT6=
EXTT7=
EXTT8=
EXTT9=
EXTT10=
PLAYORDER=
